<svg width="20" height="20" viewBox="0 0 20 20" fill="none" xmlns="http://www.w3.org/2000/svg">
<path d="M20 10.2222C20 9.39995 19.9319 8.79995 19.7846 8.17773H10.204V11.8888H15.8276C15.7143 12.8111 15.102 14.2 13.7414 15.1332L13.7224 15.2575L16.7515 17.5572L16.9614 17.5778C18.8888 15.8333 20 13.2666 20 10.2222Z" fill="#4285F4"/>
<path d="M10.2035 20.0001C12.9586 20.0001 15.2715 19.1112 16.9608 17.5779L13.7409 15.1333C12.8792 15.7222 11.7227 16.1333 10.2035 16.1333C7.5051 16.1333 5.21487 14.3889 4.39847 11.9778L4.2788 11.9877L1.12902 14.3767L1.08783 14.4889C2.76582 17.7556 6.21253 20.0001 10.2035 20.0001Z" fill="#34A853"/>
<path d="M4.39906 11.9778C4.18364 11.3556 4.05897 10.6888 4.05897 9.99999C4.05897 9.31105 4.18364 8.64441 4.38772 8.02219L4.38202 7.88968L1.19276 5.4624L1.08841 5.51104C0.396831 6.86662 0 8.38888 0 9.99999C0 11.6111 0.396831 13.1333 1.08841 14.4889L4.39906 11.9778Z" fill="#FBBC05"/>
<path d="M10.2035 3.86665C12.1196 3.86665 13.4121 4.67776 14.1491 5.35559L17.0289 2.60001C15.2603 0.988896 12.9586 0 10.2035 0C6.21256 0 2.76582 2.24443 1.08783 5.51108L4.38715 8.02224C5.21489 5.61112 7.50514 3.86665 10.2035 3.86665Z" fill="#EB4335"/>
</svg>
