<svg width="25" height="24" viewBox="0 0 25 24" fill="none" xmlns="http://www.w3.org/2000/svg">
<path d="M21.5 18.5C21.5 19.881 20.381 21 19 21H6C4.6195 21 3.5 19.881 3.5 18.5V5.5C3.5 4.119 4.6195 3 6 3H19C20.381 3 21.5 4.119 21.5 5.5V18.5Z" fill="#4C9BE0"/>
<path d="M6.5 9.5H9V18H6.5V9.5ZM7.7425 8.5H7.7285C6.9825 8.5 6.5 7.944 6.5 7.2495C6.5 6.54 6.9975 6 7.757 6C8.5175 6 8.986 6.54 9 7.2495C9 7.9435 8.5175 8.5 7.7425 8.5ZM18.5 18H16V13.4505C16 12.3515 15.3875 11.6015 14.404 11.6015C13.6535 11.6015 13.2475 12.1075 13.0505 12.5965C12.9785 12.7715 13 13.2555 13 13.5V18H10.5V9.5H13V10.808C13.3605 10.25 13.925 9.5 15.369 9.5C17.158 9.5 18.4995 10.625 18.4995 13.137L18.5 18Z" fill="white"/>
</svg>
